<?xml version="1.0" encoding="utf-8"?>
<!-- Generator: Adobe Illustrator 26.0.2, SVG Export Plug-In . SVG Version: 6.00 Build 0)  -->
<svg version="1.1" id="Layer_1" xmlns="http://www.w3.org/2000/svg" xmlns:xlink="http://www.w3.org/1999/xlink" x="0px" y="0px"
	 viewBox="0 0 56 37" style="enable-background:new 0 0 56 37;" xml:space="preserve">
<style type="text/css">
	.st0{fill:#A4AAB4;}
	.st1{fill:#FFFFFF;}
</style>
<path id="다각형_83" class="st0" d="M51,23l-5-8h10L51,23z"/>
<g id="그룹_5968" transform="translate(-19665 -8198)">
	<circle id="타원_1463" class="st1" cx="19683.5" cy="8216.5" r="18.5"/>
	<path id="패스_8578" class="st0" d="M19683.5,8198c-10.2,0-18.5,8.3-18.5,18.5c0,5.1,2.1,9.9,5.7,13.4
		c2.6-7.1,10.4-10.7,17.5-8.1c3.8,1.4,6.7,4.3,8.1,8.1c7.4-7.1,7.7-18.8,0.6-26.1C19693.4,8200.1,19688.6,8198,19683.5,8198
		L19683.5,8198z M19683.5,8219.6L19683.5,8219.6c-3.2,0-5.8-2.5-5.8-5.7c0-3.2,2.5-5.8,5.7-5.8c0.1,0,0.1,0,0.2,0l0,0
		c3.2,0,5.7,2.6,5.7,5.8C19689.1,8217,19686.6,8219.5,19683.5,8219.6z"/>
</g>
</svg>
